<svg width="48" height="48" viewBox="0 0 48 48" fill="none" xmlns="http://www.w3.org/2000/svg">
<path d="M16.2377 14.4515L14.7011 11.7902L13.1627 11.6758L12.5957 13.0058L14.1334 15.6691C15.238 15.8717 16.0585 15.4435 16.2377 14.4515Z" fill="#B9C1CB"/>
<path d="M31.7637 14.4515L33.3002 11.7902L34.8387 11.6758L35.4057 13.0058L33.868 15.6691C32.7634 15.8717 31.9428 15.4435 31.7637 14.4515Z" fill="#B9C1CB"/>
<path d="M25.2492 10.3012C27.1776 9.74869 28.5244 7.95994 28.5244 5.95144C28.5244 3.45675 26.4948 1.42725 24.0002 1.42725C21.5055 1.42725 19.4759 3.45684 19.4759 5.95144C19.4759 7.95994 20.8227 9.74869 22.7511 10.3012L22.9468 11.8096C20.0991 11.3004 18.0488 8.79309 18.0488 5.95134C18.0487 2.66981 20.7185 0 24.0002 0C27.2818 0 29.9516 2.66981 29.9516 5.95134C29.9516 8.78897 27.9073 11.2931 25.0662 11.8073L25.2492 10.3012Z" fill="#DAE4EA"/>
<path d="M24.0003 13.0495C24.4871 13.0495 24.9691 13.0723 25.4459 13.1169V7.17615H22.5547V13.1169C23.0315 13.0723 23.5136 13.0495 24.0003 13.0495Z" fill="#B9C1CB"/>
<path d="M24.0005 48.0001C33.7595 48.0001 41.6708 40.0888 41.6708 30.3297C41.6708 20.5706 33.7595 12.6593 24.0005 12.6593C14.2414 12.6593 6.33008 20.5706 6.33008 30.3297C6.33008 40.0888 14.2414 48.0001 24.0005 48.0001Z" fill="#DAE4EA"/>
<path d="M26.1425 4.32739H21.8594C21.6468 4.32739 21.4746 4.49961 21.4746 4.71214V7.19071C21.4746 7.40324 21.6468 7.57546 21.8594 7.57546H26.1425C26.355 7.57546 26.5273 7.40324 26.5273 7.19071V4.71214C26.5273 4.49971 26.3549 4.32739 26.1425 4.32739Z" fill="#DAE4EA"/>
<path d="M14.92 11.6638L12.3765 13.1323C12.2808 13.1876 12.1584 13.1548 12.1032 13.0591L10.2026 9.76727C10.1474 9.67156 10.1801 9.54921 10.2758 9.49399L12.8194 8.02549C12.9151 7.97027 13.0374 8.00299 13.0926 8.09871L14.9932 11.3906C15.0485 11.4862 15.0157 11.6085 14.92 11.6638Z" fill="#DAE4EA"/>
<path d="M33.0825 11.6638L35.626 13.1323C35.7218 13.1876 35.8441 13.1548 35.8993 13.0591L37.7999 9.76727C37.8551 9.67156 37.8224 9.54921 37.7267 9.49399L35.1832 8.02549C35.0875 7.97027 34.9651 8.00299 34.9099 8.09871L33.0093 11.3906C32.954 11.4862 32.9868 11.6085 33.0825 11.6638Z" fill="#DAE4EA"/>
<path d="M24.0008 44.7874C31.9857 44.7874 38.4587 38.3144 38.4587 30.3295C38.4587 22.3447 31.9857 15.8717 24.0008 15.8717C16.016 15.8717 9.54297 22.3447 9.54297 30.3295C9.54297 38.3144 16.016 44.7874 24.0008 44.7874Z" fill="#F6F9F9"/>
<path d="M28.4859 16.5811C32.2147 19.1958 34.6524 23.5266 34.6524 28.4266C34.6524 36.4115 28.1794 42.8845 20.1945 42.8845C18.6287 42.8845 17.121 42.6356 15.709 42.1751C18.0564 43.8212 20.9156 44.7873 24.0003 44.7873C31.9852 44.7873 38.4582 38.3144 38.4582 30.3295C38.4582 23.9105 34.2749 18.4685 28.4859 16.5811Z" fill="#E7ECF1"/>
<path d="M24 30.194V18.3873C24 18.3118 24.0618 18.2501 24.1372 18.251C30.6892 18.3243 36.0052 23.6404 36.0785 30.1922C36.0793 30.2677 36.0176 30.3295 35.9422 30.3295H24.1355C24.0607 30.3296 24 30.2688 24 30.194Z" fill="#DA4A54"/>
<path d="M35.9424 30.3296C36.0179 30.3296 36.0795 30.2678 36.0787 30.1924C36.0485 27.4959 35.1303 25.0088 33.6035 23.0104C34.2799 24.6833 34.6523 26.5115 34.6523 28.4268C34.6523 29.0718 34.61 29.7069 34.5282 30.3296H35.9424Z" fill="#D82E3D"/>
</svg>
