<svg width="68" height="68" viewBox="0 0 68 68" fill="none" xmlns="http://www.w3.org/2000/svg">
<g clip-path="url(#clip0_1_697)">
<path d="M23.0013 20.4739L20.8245 16.7037L18.645 16.5416L17.8418 18.4258L20.0202 22.1988C21.585 22.4859 22.7475 21.8792 23.0013 20.4739Z" fill="#B9C1CB"/>
<path d="M44.998 20.4739L47.1748 16.7037L49.3543 16.5416L50.1576 18.4258L47.9792 22.1988C46.4144 22.4859 45.2519 21.8792 44.998 20.4739Z" fill="#B9C1CB"/>
<path d="M35.7689 14.5942C38.5008 13.8115 40.4088 11.2774 40.4088 8.43206C40.4088 4.89792 37.5336 2.02279 33.9994 2.02279C30.4653 2.02279 27.59 4.89805 27.59 8.43206C27.59 11.2774 29.498 13.8115 32.23 14.5942L32.5071 16.7311C28.473 16.0098 25.5684 12.4577 25.5684 8.43192C25.5682 3.78309 29.3505 0.000854492 33.9994 0.000854492C38.6484 0.000854492 42.4306 3.78309 42.4306 8.43192C42.4306 12.4519 39.5345 15.9994 35.5096 16.7279L35.7689 14.5942Z" fill="#DAE4EA"/>
<path d="M33.9991 18.4876C34.6887 18.4876 35.3716 18.5198 36.047 18.5831V10.167H31.9512V18.5831C32.6267 18.5198 33.3096 18.4876 33.9991 18.4876Z" fill="#B9C1CB"/>
<path d="M33.9998 68.0006C47.8252 68.0006 59.0329 56.7929 59.0329 42.9675C59.0329 29.1422 47.8252 17.9345 33.9998 17.9345C20.1745 17.9345 8.9668 29.1422 8.9668 42.9675C8.9668 56.7929 20.1745 68.0006 33.9998 68.0006Z" fill="#DAE4EA"/>
<path d="M37.0328 6.13104H30.965C30.6639 6.13104 30.4199 6.37502 30.4199 6.67611V10.1874C30.4199 10.4885 30.6639 10.7325 30.965 10.7325H37.0328C37.3339 10.7325 37.5778 10.4885 37.5778 10.1874V6.67611C37.5778 6.37515 37.3337 6.13104 37.0328 6.13104Z" fill="#DAE4EA"/>
<path d="M21.135 16.5245L17.5317 18.6049C17.3961 18.6831 17.2227 18.6367 17.1445 18.5011L14.452 13.8377C14.3738 13.7021 14.4201 13.5288 14.5557 13.4505L18.1591 11.3702C18.2947 11.2919 18.468 11.3383 18.5462 11.4739L21.2387 16.1373C21.3171 16.2728 21.2706 16.4461 21.135 16.5245Z" fill="#DAE4EA"/>
<path d="M46.8645 16.5245L50.4678 18.6049C50.6034 18.6831 50.7767 18.6367 50.8549 18.5011L53.5474 13.8377C53.6257 13.7021 53.5793 13.5288 53.4437 13.4505L49.8404 11.3702C49.7048 11.2919 49.5315 11.3383 49.4532 11.4739L46.7607 16.1373C46.6824 16.2728 46.7289 16.4461 46.8645 16.5245Z" fill="#DAE4EA"/>
<path d="M33.9995 63.4499C45.3114 63.4499 54.4815 54.2798 54.4815 42.968C54.4815 31.6561 45.3114 22.486 33.9995 22.486C22.6877 22.486 13.5176 31.6561 13.5176 42.968C13.5176 54.2798 22.6877 63.4499 33.9995 63.4499Z" fill="#F6F9F9"/>
<path d="M51.1125 42.9678C51.1125 33.5805 43.5144 25.9344 34.1451 25.8561C34.0654 25.8555 34.0001 25.9207 34.0001 26.0004V42.9678H17.0328C16.9531 42.9678 16.888 43.0332 16.8887 43.1129C16.9669 52.4821 24.6129 60.0802 34.0004 60.0802C34.0386 60.0802 34.0767 60.0801 34.1147 60.0798C43.4979 60.0181 51.1125 52.3655 51.1125 42.9678Z" fill="#FFC954"/>
<path d="M38.8159 26.5454C43.0039 29.6677 45.721 34.6585 45.721 40.2721C45.721 49.6697 38.1063 57.3223 28.723 57.3839C28.685 57.3842 28.6469 57.3843 28.6086 57.3843C26.9372 57.3843 25.3211 57.1434 23.793 56.6945C26.6445 58.8204 30.1779 60.08 34.0001 60.08C34.0384 60.08 34.0765 60.0799 34.1145 60.0796C43.4978 60.018 51.1125 52.3654 51.1125 42.9678C51.1124 35.2035 45.9146 28.6304 38.8159 26.5454Z" fill="#E1A729"/>
</g>
<defs>
<clipPath id="clip0_1_697">
<rect width="68" height="68" fill="white" transform="translate(0 0.000854492)"/>
</clipPath>
</defs>
</svg>
