<svg width="48" height="48" viewBox="0 0 48 48" fill="none" xmlns="http://www.w3.org/2000/svg">
<path d="M45.2379 9.60269L26.6153 8.08704L2.76367 9.60269V46.8253C2.76367 47.474 3.28952 47.9999 3.93827 47.9999H44.0631C44.7119 47.9999 45.238 47.4738 45.238 46.825L45.2379 9.60269Z" fill="#F6F9F9"/>
<path d="M45.2379 9.60267L41.3747 7.67114V37.1131C41.3747 42.0589 37.3653 46.0683 32.4195 46.0683H2.76367V46.8253C2.76367 47.474 3.28952 47.9999 3.93827 47.9999H44.063C44.7118 47.9999 45.2379 47.4739 45.2379 46.825V9.60267Z" fill="#E7ECF1"/>
<path d="M44.0631 2.73987H3.93845C3.28961 2.73987 2.76367 3.26581 2.76367 3.91465V9.60274H45.2379V3.91465C45.2379 3.26581 44.7119 2.73987 44.0631 2.73987Z" fill="#61A2F9"/>
<path d="M44.0635 2.73987H41.375V9.60274H45.2382V3.91465C45.2382 3.26581 44.7122 2.73987 44.0635 2.73987Z" fill="#5490F9"/>
<path d="M8.76797 6.46556H8.10797C7.46156 6.46556 6.9375 5.9415 6.9375 5.29509V1.17047C6.9375 0.524062 7.46156 0 8.10797 0H8.76797C9.41437 0 9.93844 0.524062 9.93844 1.17047V5.295C9.93844 5.9415 9.41447 6.46556 8.76797 6.46556Z" fill="#DAE4EA"/>
<path d="M16.5492 6.46556H15.8892C15.2428 6.46556 14.7188 5.9415 14.7188 5.29509V1.17047C14.7188 0.524062 15.2428 0 15.8892 0H16.5492C17.1956 0 17.7197 0.524062 17.7197 1.17047V5.295C17.7197 5.9415 17.1957 6.46556 16.5492 6.46556Z" fill="#DAE4EA"/>
<path d="M24.3324 6.46556H23.6724C23.026 6.46556 22.502 5.9415 22.502 5.29509V1.17047C22.502 0.524062 23.026 0 23.6724 0H24.3324C24.9788 0 25.5029 0.524062 25.5029 1.17047V5.295C25.5029 5.9415 24.9788 6.46556 24.3324 6.46556Z" fill="#DAE4EA"/>
<path d="M32.1137 6.46556H31.4537C30.8073 6.46556 30.2832 5.9415 30.2832 5.29509V1.17047C30.2832 0.524062 30.8072 0 31.4537 0H32.1137C32.7601 0 33.2841 0.524062 33.2841 1.17047V5.295C33.2841 5.9415 32.7601 6.46556 32.1137 6.46556Z" fill="#DAE4EA"/>
<path d="M39.8949 6.46556H39.2349C38.5885 6.46556 38.0645 5.9415 38.0645 5.29509V1.17047C38.0645 0.524062 38.5884 0 39.2349 0H39.8949C40.5413 0 41.0654 0.524062 41.0654 1.17047V5.295C41.0654 5.9415 40.5413 6.46556 39.8949 6.46556Z" fill="#DAE4EA"/>
<path d="M36.1471 22.8461L33.1064 19.8054C32.8615 19.5605 32.4644 19.5605 32.2194 19.8054L21.7193 30.3055C21.6852 30.3397 21.63 30.3397 21.5959 30.3055L15.7994 24.5091C15.5544 24.2641 15.1574 24.2641 14.9124 24.5091L11.8536 27.5678C11.6087 27.8128 11.6087 28.2098 11.8536 28.4548L21.196 37.7971C21.441 38.0421 21.838 38.042 22.083 37.7971L36.1471 23.733C36.392 23.4881 36.392 23.0911 36.1471 22.8461Z" fill="#80E29D"/>
</svg>
