<svg width="48" height="43" viewBox="0 0 48 43" fill="none" xmlns="http://www.w3.org/2000/svg">
<g clip-path="url(#clip0_1_822)">
<path d="M44.0545 5.7796L24.7391 4.50366L0 5.7796V37.1285C0 37.6749 0.545455 38.1179 1.21818 38.1179H42.8356C43.5083 38.1179 44.0545 37.6749 44.0545 37.1285V5.7796Z" fill="#F6F9F9"/>
<path d="M44.0539 5.7797L40.7962 4.1532V28.9495C40.7962 33.1153 37.4152 36.4915 33.2452 36.4915H0.0175781V37.1294C0.0175781 37.6758 0.461056 38.1188 1.00809 38.1188H43.0634C43.6105 38.1188 44.0539 37.6758 44.0539 37.1294V5.7797Z" fill="#E7ECF1"/>
<path d="M43.064 0H1.0087C0.46166 0 0.0181818 0.442947 0.0181818 0.989327L0 5.77963H44.0545V0.989327C44.0545 0.442947 43.6111 0 43.064 0Z" fill="#61A2F9"/>
<path d="M43.064 0H40.7968V5.77963H44.0546V0.989327C44.0546 0.442947 43.6111 0 43.064 0Z" fill="#5490F9"/>
<path d="M3.5957 26.0841V24.6534C3.5957 24.4773 3.83365 24.3336 4.12693 24.3336H34.1759C34.4692 24.3336 34.7072 24.4765 34.7072 24.6534V26.0841C34.7072 26.2609 34.4692 26.4039 34.1759 26.4039H4.12693C3.83365 26.4039 3.5957 26.2609 3.5957 26.0841Z" fill="#DAE4EA"/>
<path d="M3.5957 30.2237V28.793C3.5957 28.6162 3.78622 28.4733 4.02179 28.4733H28.1246C28.3601 28.4733 28.5506 28.6162 28.5506 28.793V30.2237C28.5506 30.3998 28.3601 30.5435 28.1246 30.5435H4.02179C3.78701 30.5435 3.5957 30.4006 3.5957 30.2237Z" fill="#DAE4EA"/>
<path d="M3.5957 19.5724V11.7051C3.5957 10.7348 4.45104 9.94836 5.50717 9.94836H16.1585C17.2139 9.94836 18.07 10.7348 18.07 11.7051V19.5724C18.07 20.5428 17.2147 21.3292 16.1585 21.3292H5.50717C4.45183 21.3292 3.5957 20.5428 3.5957 19.5724Z" fill="#DAE4EA"/>
<path d="M20.2344 19.5724V11.7051C20.2344 10.7348 21.0897 9.94836 22.1458 9.94836H32.7972C33.8526 9.94836 34.7087 10.7348 34.7087 11.7051V19.5724C34.7087 20.5428 33.8533 21.3292 32.7972 21.3292H22.1458C21.0905 21.3292 20.2344 20.5428 20.2344 19.5724Z" fill="#DAE4EA"/>
<path d="M47.5982 32.0866L46.2852 31.8015C46.1713 31.4525 46.0298 31.1114 45.8623 30.7838L46.5895 29.6547C46.7192 29.4526 46.6907 29.1881 46.5208 29.0183L44.4749 26.9749C44.3049 26.8051 44.0401 26.7767 43.8378 26.9062L42.7073 27.6326C42.3785 27.466 42.0378 27.3247 41.6883 27.2102L41.403 25.8987C41.3524 25.6642 41.1445 25.4968 40.9042 25.4968H38.0117C37.7714 25.4968 37.5634 25.6642 37.5129 25.8987L37.2275 27.2102C36.8781 27.3239 36.5366 27.4652 36.2085 27.6326L35.0781 26.9062C34.8757 26.7767 34.6109 26.8051 34.4409 26.9749L32.3951 29.0183C32.2251 29.1881 32.1966 29.4526 32.3263 29.6547L33.0536 30.7838C32.8868 31.1122 32.7453 31.4525 32.6306 31.8015L31.3176 32.0866C31.0828 32.1379 30.916 32.3447 30.916 32.5848V35.4738C30.916 35.7138 31.0836 35.9207 31.3176 35.972L32.6306 36.257C32.7445 36.606 32.886 36.9471 33.0536 37.2748L32.3263 38.4039C32.1966 38.606 32.2251 38.8705 32.3951 39.0403L34.4409 41.0837C34.6109 41.2534 34.8757 41.2819 35.0781 41.1524L36.2085 40.426C36.5374 40.5926 36.8781 40.7339 37.2275 40.8484L37.5129 42.1599C37.5634 42.3944 37.7714 42.5617 38.0117 42.5617H40.9042C41.1445 42.5617 41.3524 42.3944 41.403 42.1599L41.6883 40.8484C42.0378 40.7347 42.3793 40.5934 42.7073 40.426L43.8378 41.1524C44.0401 41.2819 44.3049 41.2534 44.4749 41.0837L46.5208 39.0403C46.6907 38.8705 46.7192 38.606 46.5895 38.4039L45.8623 37.2748C46.0291 36.9463 46.1706 36.606 46.2852 36.257L47.5982 35.972C47.833 35.9207 48.0006 35.7138 48.0006 35.4738V32.5848C48.0006 32.3455 47.833 32.1379 47.5982 32.0866ZM42.5215 34.0297C42.5215 35.7162 41.1476 37.0893 39.4583 37.0893C37.7698 37.0893 36.3951 35.717 36.3951 34.0297C36.3951 32.3424 37.769 30.9701 39.4583 30.9701C41.1468 30.9709 42.5215 32.3432 42.5215 34.0297Z" fill="#C8D2D8"/>
</g>
<defs>
<clipPath id="clip0_1_822">
<rect width="48" height="42.5616" fill="white"/>
</clipPath>
</defs>
</svg>
