<svg width="68" height="68" viewBox="0 0 68 68" fill="none" xmlns="http://www.w3.org/2000/svg">
<g clip-path="url(#clip0_1_686)">
<path d="M40.4392 37.445C49.7527 45.8002 55.2404 53.8367 55.9069 65.5774H12.0918C12.7583 53.8368 18.246 45.8002 27.5595 37.445L31.4028 33.9973L27.5595 30.5575C18.246 22.2024 12.7583 14.1658 12.0918 2.42514H55.9069C55.2404 14.1658 49.7527 22.2025 40.4392 30.5575L36.5961 33.9973L40.4392 37.445Z" fill="#F6F9F9"/>
<path d="M11.67 4.88147H56.3278C57.8305 4.88147 59.0485 3.78863 59.0485 2.44066C59.0485 1.09269 57.8305 0 56.3278 0H11.67C10.1672 0 8.94922 1.09284 8.94922 2.44081C8.94922 3.78877 10.1672 4.88147 11.67 4.88147Z" fill="#2F4859"/>
<path d="M24.9579 51.4971C19.3589 54.3987 15.9102 59.7588 15.9102 65.5592H52.0879C52.0879 59.7586 48.6389 54.3987 43.04 51.4971L35.5385 47.6099C35.5385 38.1881 35.5385 35.8299 35.5385 26.408L40.8415 23.6601C44.4694 21.7801 46.9043 18.5363 47.5298 14.8869C47.6977 13.9074 46.8656 13.0177 45.7608 13.0177H22.2375C21.1326 13.0177 20.3004 13.9072 20.4684 14.8869C21.0939 18.5362 23.5291 21.7801 27.1568 23.6601L32.8276 26.5987C32.8276 35.8511 32.8276 38.1667 32.8275 47.4192L24.9579 51.4971Z" fill="#F7BE56"/>
<path d="M56.3278 63.1185H11.67C10.1672 63.1185 8.94922 64.2114 8.94922 65.5593C8.94922 66.9072 10.1672 68.0001 11.67 68.0001H56.3278C57.8305 68.0001 59.0485 66.9073 59.0485 65.5593C59.0485 64.2115 57.8305 63.1185 56.3278 63.1185Z" fill="#2F4859"/>
</g>
<defs>
<clipPath id="clip0_1_686">
<rect width="68" height="68" fill="white"/>
</clipPath>
</defs>
</svg>
