<svg width="48" height="48" viewBox="0 0 48 48" fill="none" xmlns="http://www.w3.org/2000/svg">
<path d="M0.743569 22.2095C0.738341 22.2147 0.727884 22.2147 0.722656 22.2147V22.2199C0.722656 22.2252 0.727884 22.2252 0.727884 22.2252C0.900415 22.2618 1.07294 22.2984 1.24548 22.3297C1.07294 22.2879 0.910871 22.2461 0.743569 22.2095ZM0.743569 22.2095C0.738341 22.2147 0.727884 22.2147 0.722656 22.2147V22.2199C0.722656 22.2252 0.727884 22.2252 0.727884 22.2252C0.900415 22.2618 1.07294 22.2984 1.24548 22.3297C1.07294 22.2879 0.910871 22.2461 0.743569 22.2095ZM0.743569 22.2095C0.738341 22.2147 0.727884 22.2147 0.722656 22.2147V22.2199C0.722656 22.2252 0.727884 22.2252 0.727884 22.2252C0.900415 22.2618 1.07294 22.2984 1.24548 22.3297C1.07294 22.2879 0.910871 22.2461 0.743569 22.2095ZM0.743569 22.2095C0.738341 22.2147 0.727884 22.2147 0.722656 22.2147V22.2199C0.722656 22.2252 0.727884 22.2252 0.727884 22.2252C0.900415 22.2618 1.07294 22.2984 1.24548 22.3297C1.07294 22.2879 0.910871 22.2461 0.743569 22.2095ZM0.743569 22.2095C0.738341 22.2147 0.727884 22.2147 0.722656 22.2147V22.2199C0.722656 22.2252 0.727884 22.2252 0.727884 22.2252C0.900415 22.2618 1.07294 22.2984 1.24548 22.3297C1.07294 22.2879 0.910871 22.2461 0.743569 22.2095Z" fill="#FFC005"/>
<path d="M22.9292 7.46063C22.9292 9.77672 22.6834 12.0248 22.2181 14.1632C21.758 16.2963 21.0782 18.3248 20.2207 20.2174C18.3436 21.0696 16.3305 21.744 14.2181 22.2041C12.0586 22.6747 9.79455 22.9256 7.4573 22.9256C5.32396 22.9256 3.24292 22.7165 1.25076 22.3191C1.24553 22.3191 1.2403 22.3139 1.2403 22.3139C1.07298 22.2773 0.910892 22.2355 0.743571 22.1989C0.910892 22.1623 1.07298 22.1257 1.2403 22.0839C1.06775 22.1152 0.895205 22.1518 0.722656 22.1884C1.94096 16.589 4.639 11.7059 8.28867 8.18735C11.8024 4.5799 16.6547 1.91352 22.2129 0.705811V0.711039C22.2181 0.721495 22.2181 0.731951 22.2181 0.742408C22.6834 2.89642 22.9292 5.14454 22.9292 7.46063Z" fill="#FF733B"/>
<path d="M1.23962 22.3244C1.06709 22.293 0.894555 22.2564 0.722025 22.2198C0.722025 22.2198 0.716797 22.2198 0.716797 22.2146V22.2093C0.722025 22.2093 0.732481 22.2093 0.73771 22.2041C0.91024 22.2459 1.07231 22.2878 1.23962 22.3244Z" fill="#FFC005"/>
<path d="M22.2124 0.716262C20.0581 0.250953 17.8046 0 15.4778 0C10.8555 0 6.50521 0.982899 2.71436 2.7082C0.988866 6.49864 0.00585938 10.8485 0.00585938 15.4702C0.00585938 17.7968 0.25684 20.0553 0.722199 22.2041C0.722199 22.1989 0.727428 22.1989 0.727428 22.1989C1.94573 16.5995 4.64377 11.7164 8.29344 8.1978C11.8072 4.59035 16.6595 1.92397 22.2176 0.716262H22.2124Z" fill="#7188FF"/>
<path d="M25.6515 0.737099C25.6463 0.731871 25.6463 0.721415 25.6463 0.716187H25.641C25.6358 0.716187 25.6358 0.721415 25.6358 0.721415C25.5992 0.893945 25.5626 1.06648 25.5312 1.23901C25.5783 1.0717 25.6149 0.904401 25.6515 0.737099ZM25.6515 0.737099C25.6463 0.731871 25.6463 0.721415 25.6463 0.716187H25.641C25.6358 0.716187 25.6358 0.721415 25.6358 0.721415C25.5992 0.893945 25.5626 1.06648 25.5312 1.23901C25.5783 1.0717 25.6149 0.904401 25.6515 0.737099ZM25.6515 0.737099C25.6463 0.731871 25.6463 0.721415 25.6463 0.716187H25.641C25.6358 0.716187 25.6358 0.721415 25.6358 0.721415C25.5992 0.893945 25.5626 1.06648 25.5312 1.23901C25.5783 1.0717 25.6149 0.904401 25.6515 0.737099ZM25.6515 0.737099C25.6463 0.731871 25.6463 0.721415 25.6463 0.716187H25.641C25.6358 0.716187 25.6358 0.721415 25.6358 0.721415C25.5992 0.893945 25.5626 1.06648 25.5312 1.23901C25.5783 1.0717 25.6149 0.904401 25.6515 0.737099ZM25.6515 0.737099C25.6463 0.731871 25.6463 0.721415 25.6463 0.716187H25.641C25.6358 0.716187 25.6358 0.721415 25.6358 0.721415C25.5992 0.893945 25.5626 1.06648 25.5312 1.23901C25.5783 1.0717 25.6149 0.904401 25.6515 0.737099Z" fill="#FFC005"/>
<path d="M40.4068 22.9308C38.0905 22.9308 35.8421 22.685 33.6983 22.2197C31.5598 21.7596 29.531 21.08 27.6382 20.2173C26.7859 18.3404 26.1114 16.3276 25.6513 14.2101C25.1807 12.0509 24.9297 9.78187 24.9297 7.45009C24.9297 5.31176 25.1388 3.23617 25.5362 1.24423C25.5362 1.23901 25.5415 1.23378 25.5415 1.23378C25.5781 1.06648 25.6199 0.904401 25.6565 0.737099C25.6931 0.904401 25.7297 1.06648 25.7715 1.23378C25.7401 1.06125 25.7035 0.888717 25.6669 0.716187C31.2722 1.93435 36.1558 4.63733 39.6748 8.28138C43.2826 11.7999 45.9493 16.6465 47.1571 22.2093H47.1519C47.1415 22.2145 47.131 22.2145 47.1205 22.2145C44.9768 22.685 42.7284 22.9308 40.4068 22.9308Z" fill="#FF733B"/>
<path d="M25.541 1.23388C25.5724 1.06135 25.609 0.888818 25.6456 0.716288C25.6456 0.716288 25.6456 0.71106 25.6508 0.71106H25.656C25.656 0.716288 25.656 0.726744 25.6613 0.731972C25.6142 0.904503 25.5776 1.0718 25.541 1.23388Z" fill="#FFC005"/>
<path d="M47.1621 22.2146C47.6275 20.0658 47.8785 17.8072 47.8785 15.4807C47.8785 10.8537 46.8955 6.50387 45.1647 2.71343C41.3687 0.9829 37.0236 0 32.3961 0C30.0693 0 27.8105 0.250953 25.6562 0.716262C25.6615 0.716262 25.6615 0.72149 25.6615 0.72149C31.2667 1.93966 36.1504 4.64263 39.6693 8.28668C43.2772 11.8053 45.9438 16.6518 47.1517 22.2146H47.1621C47.1621 22.2146 47.1569 22.2146 47.1621 22.2146Z" fill="#7188FF"/>
<path d="M47.1289 25.6524C47.1341 25.6471 47.1446 25.6471 47.1498 25.6471V25.6419C47.1498 25.6367 47.1446 25.6367 47.1446 25.6367C46.9721 25.6001 46.7995 25.5635 46.627 25.5321C46.7995 25.5792 46.9668 25.6158 47.1289 25.6524ZM47.1289 25.6524C47.1341 25.6471 47.1446 25.6471 47.1498 25.6471V25.6419C47.1498 25.6367 47.1446 25.6367 47.1446 25.6367C46.9721 25.6001 46.7995 25.5635 46.627 25.5321C46.7995 25.5792 46.9668 25.6158 47.1289 25.6524ZM47.1289 25.6524C47.1341 25.6471 47.1446 25.6471 47.1498 25.6471V25.6419C47.1498 25.6367 47.1446 25.6367 47.1446 25.6367C46.9721 25.6001 46.7995 25.5635 46.627 25.5321C46.7995 25.5792 46.9668 25.6158 47.1289 25.6524ZM47.1289 25.6524C47.1341 25.6471 47.1446 25.6471 47.1498 25.6471V25.6419C47.1498 25.6367 47.1446 25.6367 47.1446 25.6367C46.9721 25.6001 46.7995 25.5635 46.627 25.5321C46.7995 25.5792 46.9668 25.6158 47.1289 25.6524ZM47.1289 25.6524C47.1341 25.6471 47.1446 25.6471 47.1498 25.6471V25.6419C47.1498 25.6367 47.1446 25.6367 47.1446 25.6367C46.9721 25.6001 46.7995 25.5635 46.627 25.5321C46.7995 25.5792 46.9668 25.6158 47.1289 25.6524Z" fill="#FFC005"/>
<path d="M24.9434 40.401C24.9434 38.0849 25.1891 35.8368 25.6545 33.6985C26.1146 31.5654 26.7943 29.5368 27.6519 27.6442C29.529 26.792 31.5421 26.1176 33.6545 25.6575C35.8139 25.187 38.078 24.936 40.4153 24.936C42.5486 24.936 44.6296 25.1452 46.6218 25.5425C46.627 25.5425 46.6322 25.5477 46.6322 25.5477C46.7996 25.5843 46.9617 25.6262 47.129 25.6628C46.9617 25.6994 46.7996 25.7359 46.6322 25.7778C46.8048 25.7464 46.9773 25.7098 47.1499 25.6732C45.9316 31.2726 43.2336 36.1557 39.5839 39.6743C36.0702 43.2817 31.2179 45.9481 25.6597 47.1558V47.1506C25.6545 47.1402 25.6545 47.1297 25.6545 47.1192C25.1891 44.9705 24.9434 42.7171 24.9434 40.401Z" fill="#FF733B"/>
<path d="M46.6328 25.5425C46.8053 25.5738 46.9779 25.6104 47.1504 25.647C47.1504 25.647 47.1556 25.647 47.1556 25.6523V25.6575C47.1504 25.6575 47.1399 25.6575 47.1347 25.6627C46.9674 25.6157 46.8001 25.5791 46.6328 25.5425Z" fill="#FFC005"/>
<path d="M25.6654 47.1507C27.8144 47.616 30.0732 47.867 32.4 47.867C37.0222 47.867 41.3726 46.8841 45.1634 45.1588C46.8889 41.3683 47.8719 37.0185 47.8719 32.3967C47.8719 30.0702 47.6209 27.8116 47.1556 25.6628C47.1556 25.6681 47.1504 25.6681 47.1504 25.6681C45.932 31.2675 43.234 36.1506 39.5843 39.6692C36.0706 43.2766 31.2183 45.943 25.6602 47.1507H25.6654C25.6654 47.1507 25.6654 47.1455 25.6654 47.1507Z" fill="#7188FF"/>
<path d="M22.2227 47.1245C22.2279 47.1297 22.2279 47.1401 22.2279 47.1454H22.2331C22.2383 47.1454 22.2383 47.1401 22.2383 47.1401C22.2749 46.9676 22.3115 46.7951 22.3429 46.6226C22.2959 46.7951 22.2593 46.9624 22.2227 47.1245ZM22.2227 47.1245C22.2279 47.1297 22.2279 47.1401 22.2279 47.1454H22.2331C22.2383 47.1454 22.2383 47.1401 22.2383 47.1401C22.2749 46.9676 22.3115 46.7951 22.3429 46.6226C22.2959 46.7951 22.2593 46.9624 22.2227 47.1245ZM22.2227 47.1245C22.2279 47.1297 22.2279 47.1401 22.2279 47.1454H22.2331C22.2383 47.1454 22.2383 47.1401 22.2383 47.1401C22.2749 46.9676 22.3115 46.7951 22.3429 46.6226C22.2959 46.7951 22.2593 46.9624 22.2227 47.1245ZM22.2227 47.1245C22.2279 47.1297 22.2279 47.1401 22.2279 47.1454H22.2331C22.2383 47.1454 22.2383 47.1401 22.2383 47.1401C22.2749 46.9676 22.3115 46.7951 22.3429 46.6226C22.2959 46.7951 22.2593 46.9624 22.2227 47.1245ZM22.2227 47.1245C22.2279 47.1297 22.2279 47.1401 22.2279 47.1454H22.2331C22.2383 47.1454 22.2383 47.1401 22.2383 47.1401C22.2749 46.9676 22.3115 46.7951 22.3429 46.6226C22.2959 46.7951 22.2593 46.9624 22.2227 47.1245Z" fill="#FFC005"/>
<path d="M7.46712 24.9309C9.78346 24.9309 12.0318 25.1766 14.1756 25.6419C16.3142 26.102 18.3429 26.7817 20.2357 27.6443C21.088 29.5213 21.7625 31.5341 22.2227 33.6515C22.6933 35.8108 22.9442 38.0798 22.9442 40.4116C22.9442 42.5499 22.7351 44.6255 22.3377 46.6174C22.3377 46.6227 22.3325 46.6279 22.3325 46.6279C22.2959 46.7952 22.254 46.9573 22.2174 47.1246C22.1808 46.9573 22.1442 46.7952 22.1024 46.6279C22.1338 46.8004 22.1704 46.9729 22.207 47.1455C16.6018 45.9273 11.7181 43.2243 8.19915 39.5803C4.59131 36.0617 1.92464 31.2152 0.716797 25.6524H0.722026C0.732483 25.6472 0.742941 25.6472 0.753398 25.6472C2.89719 25.1766 5.15078 24.9309 7.46712 24.9309Z" fill="#FF733B"/>
<path d="M22.337 46.6279C22.3057 46.8005 22.2691 46.973 22.2325 47.1455C22.2325 47.1455 22.2325 47.1507 22.2273 47.1507H22.222C22.222 47.1455 22.222 47.1351 22.2168 47.1298C22.2586 46.9625 22.2952 46.7952 22.337 46.6279Z" fill="#FFC005"/>
<path d="M0.71634 25.6523C0.25098 27.8011 0 30.0597 0 32.3863C0 37.0132 0.983007 41.3631 2.71373 45.1535C6.50457 46.8788 10.8549 47.8669 15.4824 47.8669C17.8091 47.8669 20.068 47.616 22.2222 47.1507C22.217 47.1507 22.217 47.1454 22.217 47.1454C16.6118 45.9273 11.7281 43.2243 8.20915 39.5802C4.60131 36.0617 1.93464 31.2151 0.726797 25.6523H0.71634Z" fill="#7188FF"/>
</svg>
