<svg width="72" height="72" viewBox="0 0 72 72" fill="none" xmlns="http://www.w3.org/2000/svg">
<path d="M45.8158 45.8083C43.7538 50.3837 40.3067 54.1966 36.0037 56.7021C32.4632 58.7719 28.3548 59.9469 23.9584 59.9469C20.4646 59.9469 17.142 59.1999 14.1463 57.846C5.99932 54.1965 0.280124 46.1274 0.00778122 36.6965C0 36.4631 0 36.2374 0 36.004C0 35.7705 0 35.5371 0.00778122 35.3114C0.272343 25.8805 5.99932 17.8114 14.1385 14.1542C12.7923 17.15 12.0453 20.4648 12.0453 23.9586C12.0453 28.3472 13.2281 32.4635 15.2901 36.004C17.7956 40.307 21.6084 43.7541 26.1838 45.8083C29.1796 47.1545 32.4944 47.9015 35.9959 47.9015C39.4975 47.9015 42.82 47.1545 45.8158 45.8083Z" fill="url(#paint0_linear_1_1056)"/>
<path d="M71.9991 36.004C71.9991 36.2375 71.9991 36.4709 71.9913 36.6966C71.7268 46.1275 65.9998 54.1966 57.8684 57.8538C59.2146 54.858 59.9616 51.5354 59.9616 48.0417C59.9616 43.653 58.7788 39.5367 56.7168 35.9963C54.2112 31.6932 50.3984 28.2383 45.8231 26.1841C42.8273 24.8379 39.5125 24.0909 36.011 24.0909C32.5094 24.0909 29.1946 24.8379 26.1989 26.1841C28.2531 21.6087 31.708 17.8037 36.0032 15.2903C39.5436 13.2205 43.6521 12.0455 48.0485 12.0455C51.5501 12.0455 54.8726 12.7925 57.8684 14.1465C65.9998 17.8037 71.7268 25.8728 71.9913 35.3037C71.9913 35.5372 71.9991 35.7706 71.9991 36.004Z" fill="url(#paint1_linear_1_1056)"/>
<path d="M57.8613 14.1463C54.8656 12.8002 51.543 12.0454 48.0414 12.0454C43.6528 12.0454 39.5366 13.2281 35.9961 15.2902C31.6931 17.7957 28.246 21.6086 26.1918 26.1839C24.8456 29.1797 24.0909 32.5023 24.0909 35.9961C24.0909 39.4899 24.8379 42.8125 26.184 45.8005C21.6087 43.7463 17.8036 40.2914 15.2903 35.9961C13.2205 32.4556 12.0455 28.3471 12.0455 23.9507C12.0455 20.4569 12.7925 17.1343 14.1387 14.1463C17.7959 6.00713 25.8728 0.280125 35.3036 0.00778126C35.537 0 35.7705 0 36.0039 0C36.2373 0 36.4708 0 36.6964 0.00778126C46.135 0.280125 54.2042 6.00713 57.8613 14.1463Z" fill="url(#paint2_linear_1_1056)"/>
<path d="M35.3027 71.9844C25.8718 71.7199 17.7949 65.9928 14.1378 57.8536C17.1335 59.1998 20.4483 59.9546 23.9499 59.9546C28.3385 59.9546 32.4547 58.7718 35.9952 56.7098C40.2982 54.2042 43.7531 50.3914 45.8073 45.816C47.1535 42.8202 47.9005 39.5054 47.9005 36.0116C47.9005 32.5178 47.1535 29.1875 45.8073 26.1995C50.3827 28.2537 54.1955 31.7086 56.701 36.0116C58.7708 39.5521 59.9458 43.6606 59.9458 48.057C59.9458 51.5508 59.1988 54.8734 57.8526 57.8692C54.1955 66.0084 46.1186 71.7354 36.6877 72" fill="url(#paint3_linear_1_1056)"/>
<defs>
<linearGradient id="paint0_linear_1_1056" x1="7.53066" y1="27.5337" x2="31.4637" y2="55.2741" gradientUnits="userSpaceOnUse">
<stop stop-color="#93D8DE"/>
<stop offset="1" stop-color="#65C8D0"/>
</linearGradient>
<linearGradient id="paint1_linear_1_1056" x1="65.0687" y1="41.8849" x2="46.575" y2="24.4792" gradientUnits="userSpaceOnUse">
<stop stop-color="#93D8DE"/>
<stop offset="1" stop-color="#65C8D0"/>
</linearGradient>
<linearGradient id="paint2_linear_1_1056" x1="12.0472" y1="22.9043" x2="57.862" y2="22.9043" gradientUnits="userSpaceOnUse">
<stop stop-color="#221ECA"/>
<stop offset="1" stop-color="#6461DA"/>
</linearGradient>
<linearGradient id="paint3_linear_1_1056" x1="53.6571" y1="28.8737" x2="30.2679" y2="67.4928" gradientUnits="userSpaceOnUse">
<stop stop-color="#221ECA"/>
<stop offset="1" stop-color="#6461DA"/>
</linearGradient>
</defs>
</svg>
