<svg width="503" height="745" viewBox="0 0 503 745" fill="none" xmlns="http://www.w3.org/2000/svg">
<path d="M29.0588 188.148L31.6129 187.464L25.2012 163.535L22.6471 164.219C21.5815 164.505 20.9496 165.599 21.2352 166.665L26.6133 186.736C26.8988 187.802 27.9931 188.434 29.0588 188.148Z" fill="#010101"/>
<path d="M44.5487 245.957L47.1027 245.273L37.707 210.208L35.153 210.892C34.0873 211.177 33.4555 212.272 33.741 213.337L42.1043 244.55C42.3887 245.611 43.483 246.243 44.5487 245.957Z" fill="#010101"/>
<path d="M54.5642 283.33L57.1182 282.646L47.7225 247.58L45.1685 248.265C44.1028 248.55 43.471 249.645 43.7565 250.71L52.1198 281.922C52.4042 282.984 53.4985 283.615 54.5642 283.33Z" fill="#010101"/>
<path d="M352.743 106.646L350.189 107.33L367.692 172.652L370.246 171.968C371.312 171.682 371.944 170.588 371.658 169.522L355.189 108.058C354.903 106.992 353.809 106.36 352.743 106.646Z" fill="#010101"/>
<path d="M219.5 732.379L458.07 668.455C480.884 662.342 494.424 638.891 488.31 616.076L334.503 42.0597C328.39 19.2451 304.939 5.70596 282.125 11.8191L43.5552 75.7437C20.7405 81.8568 7.20139 105.307 13.3146 128.122L167.121 702.134C173.231 724.955 196.681 738.494 219.5 732.379Z" fill="#414141"/>
<g opacity="0.3">
<path opacity="0.3" d="M190.858 727.589C187.654 726.253 184.655 724.395 181.962 722.167C179.271 719.928 176.931 717.289 174.912 714.437C172.891 711.58 171.266 708.443 170.06 705.155L169.611 703.921L169.227 702.665C168.964 701.824 168.741 700.992 168.517 700.155L167.157 695.149L161.717 675.127L156.303 655.099L145.532 615.026L134.832 574.935L113.471 494.737C109.926 481.367 106.324 468.013 102.722 454.658L91.9298 414.591L70.3569 334.45L48.9337 254.269L27.5061 174.088L16.8281 133.991L15.4942 128.977L15.1635 127.726L14.8589 126.448C14.7632 126.02 14.6456 125.599 14.5675 125.167L14.339 123.873C14.1609 123.015 14.0964 122.14 13.9823 121.274C13.8814 120.404 13.8545 119.529 13.7856 118.655C13.7819 117.779 13.7462 116.906 13.7757 116.029C13.8252 115.157 13.8259 114.279 13.9329 113.41C14.2603 109.929 14.9918 106.476 16.1884 103.192C17.3905 99.9105 19.0598 96.7871 21.2402 94.0743L21.3722 94.1617C19.6913 97.189 18.2106 100.276 17.0594 103.501C15.9016 106.719 15.1964 110.093 14.8942 113.492C14.7913 114.341 14.7946 115.199 14.7537 116.05C14.7271 116.902 14.768 117.76 14.7746 118.612C14.842 119.463 14.873 120.318 14.9724 121.165C15.0906 122.011 15.158 122.861 15.3313 123.702L15.5604 124.962C15.635 125.381 15.7547 125.793 15.848 126.211L16.1519 127.451L16.4914 128.701L17.843 133.71L28.6443 173.774L50.1776 253.926L71.7152 334.077L93.1032 414.268L103.79 454.363C107.348 467.729 110.906 481.095 114.521 494.446L136.12 574.58L146.899 614.65L157.608 654.739L162.934 674.792L168.233 694.851L169.559 699.867C169.778 700.705 169.998 701.543 170.244 702.355L170.606 703.584L171.034 704.791C172.187 708.003 173.75 711.072 175.705 713.875C177.646 716.682 179.943 719.248 182.528 721.496C185.108 723.745 187.929 725.712 190.922 727.44L190.858 727.589Z" fill="white"/>
</g>
<g opacity="0.3">
<path opacity="0.3" d="M480.261 649.921C481.994 646.927 483.447 643.81 484.558 640.576C485.67 637.343 486.376 633.973 486.653 630.566C486.944 627.161 486.763 623.722 486.156 620.363L485.922 619.105L485.622 617.859C485.433 617.032 485.2 616.197 484.971 615.362L483.611 610.355L478.171 590.334L472.757 570.305L461.986 530.233L451.286 490.141L429.925 409.943C426.38 396.573 422.778 383.219 419.176 369.865L408.384 329.798L386.811 249.656L365.388 169.475L343.96 89.2947L333.282 49.1974L331.948 44.1838L331.618 42.932L331.255 41.7029C331.127 41.2937 331.026 40.8818 330.88 40.4773L330.448 39.2714C330.183 38.4598 329.811 37.6864 329.49 36.8945C329.157 36.1105 328.752 35.3554 328.385 34.5853C327.965 33.8437 327.573 33.0851 327.122 32.3561C326.657 31.6407 326.231 30.8959 325.722 30.2111C323.756 27.4199 321.463 24.8487 318.851 22.6411C316.242 20.4236 313.416 18.4905 310.446 16.7092L310.517 16.5676C313.762 17.8267 316.769 19.697 319.451 21.9377C322.134 24.1827 324.493 26.807 326.518 29.6581C327.045 30.357 327.484 31.117 327.963 31.8477C328.427 32.5919 328.832 33.3658 329.268 34.127C329.645 34.918 330.064 35.6883 330.407 36.4931C330.741 37.3003 331.118 38.0913 331.398 38.9226L331.846 40.1569C331.995 40.5702 332.104 40.9941 332.234 41.4122L332.61 42.6709L332.949 43.9203L334.301 48.9292L345.102 88.9935L366.635 169.146L388.173 249.296L409.561 329.487L420.248 369.582C423.806 382.948 427.363 396.315 430.978 409.665L452.578 489.8L463.357 529.87L474.066 569.959L479.392 590.011L484.691 610.071L486.016 615.087C486.239 615.919 486.463 616.755 486.656 617.615L486.952 618.895L487.18 620.188C487.779 623.638 487.941 627.168 487.619 630.652C487.296 634.132 486.585 637.589 485.378 640.871C484.165 644.146 482.497 647.255 480.386 650.015L480.261 649.921Z" fill="white"/>
</g>
<path d="M218.274 727.795C198.022 733.222 177.129 721.159 171.702 700.907L17.896 126.895C12.4696 106.643 24.5323 85.7495 44.7841 80.3231L283.354 16.3986C303.606 10.9721 324.499 23.0348 329.925 43.2866L483.731 617.299C489.158 637.551 477.095 658.444 456.843 663.871L218.274 727.795Z" fill="#010101"/>
<path d="M218 726.778C198.308 732.055 177.995 720.327 172.719 700.635L18.9125 126.622C13.6359 106.93 25.3634 86.6174 45.0559 81.3408L283.626 17.4162C303.318 12.1396 323.631 23.8671 328.907 43.5596L482.713 617.572C487.99 637.265 476.263 657.577 456.57 662.854L218 726.778V726.778Z" fill="#1C1C1C"/>
<path d="M215.548 717.619C200.906 721.542 185.808 712.821 181.886 698.184L28.0782 124.167C24.1562 109.53 32.876 94.4265 47.5133 90.5044L286.083 26.5799C300.72 22.6578 315.823 31.3777 319.746 46.015L473.552 620.027C477.474 634.665 468.754 649.768 454.117 653.69L215.547 717.614L215.548 717.619Z" fill="#010101"/>
<path d="M286.213 27.0922L47.6479 91.0156C33.266 94.8692 24.7299 109.654 28.5835 124.036L182.39 698.048C186.243 712.43 201.028 720.966 215.41 717.113L453.98 653.188C468.362 649.335 476.898 634.55 473.044 620.168L319.237 46.151C315.379 31.7703 300.595 23.2386 286.213 27.0922Z"/>
</svg>
