<svg width="176" height="35" viewBox="0 0 176 35" fill="none" xmlns="http://www.w3.org/2000/svg">
<path d="M0.728533 19.3058C2.19007 15.4551 7.67085 12.4868 10.2285 11.484C21.9209 6.67064 40.7381 4.26372 48.5939 5.46718C56.4497 6.67064 47.8632 9.07716 40.3728 11.4839C32.8824 13.8906 38.3631 15.094 45.1228 13.8906C51.8824 12.6872 65.9497 11.4839 78.0074 10.8822C90.0651 10.2805 77.8247 9.07716 65.9497 9.07716C54.0747 9.07716 54.2574 6.67054 58.4593 5.46718C62.6612 4.26381 72.1612 -0.54963 83.3055 0.0520504C94.4497 0.653731 120.757 1.85709 132.084 6.06886C143.411 10.2806 166.796 21.7126 172.459 25.3226C178.123 28.9327 177.392 39.1613 167.344 33.1445C157.296 27.1277 136.469 16.2974 90.7959 14.4924C45.1228 12.6873 10.4112 22.9159 6.75736 27.1277C3.10351 31.3394 0.545814 31.3394 2.00735 27.7294C3.46889 24.1193 3.8343 23.5176 2.37277 24.721C0.911226 25.9243 -1.09839 24.1193 0.728533 19.3058Z" fill="#FF733B"/>
</svg>
