<svg width="68" height="68" viewBox="0 0 68 68" fill="none" xmlns="http://www.w3.org/2000/svg">
<path d="M61.625 21.2505H59.5V14.8755C59.5 13.6982 58.548 12.7505 57.375 12.7505H6.375C2.86025 12.7505 0 15.6107 0 19.1255V57.3755C0 60.8902 2.86025 63.7505 6.375 63.7505H61.625C62.798 63.7505 63.75 62.7985 63.75 61.6255V23.3755C63.75 22.1982 62.798 21.2505 61.625 21.2505Z" fill="#FA855C"/>
<path d="M6.375 17.0005H55.25V21.2505H6.375C5.202 21.2505 4.25 20.2985 4.25 19.1255C4.25 17.9525 5.202 17.0005 6.375 17.0005Z" fill="#F8FEFE"/>
<path d="M65.875 46.7505H53.125C49.606 46.7505 46.75 43.8945 46.75 40.3755C46.75 36.8522 49.606 34.0005 53.125 34.0005H65.875C67.048 34.0005 68 34.9525 68 36.1255V44.6255C68 45.7985 67.048 46.7505 65.875 46.7505Z" fill="#FFD6C8"/>
<path d="M54.4378 21.2502L46.5243 5.4232C45.9973 4.37345 44.7223 3.9527 43.6725 4.4712L10.123 21.2502H54.4378Z" fill="#F8FEFE"/>
<path d="M4.25 21.2504H45.9383L38.0247 5.42336C37.4977 4.37361 36.2227 3.95286 35.173 4.47561L4.25 19.9371V21.2504Z" fill="#E6EAE8"/>
</svg>
